#N canvas 185 102 475 402 10;
#X msg 65 97 1 10 \, 0 1000 10;
#X obj 65 123 vline~;
#X obj 65 214 *~;
#X obj 65 243 dac~;
#X floatatom 170 98 5 0 0 0 - - -, f 5;
#X obj 170 123 mtof;
#X obj 108 39 r midinote;
#X obj 65 69 trigger bang float;
#X obj 170 177 phasor~;
#X obj 170 150 sig~ 890;
#X floatatom 65 41 5 0 0 0 - - -, f 5;
#X obj 65 15 bng 15 250 50 0 empty empty empty 17 7 0 10 -262144 -1
-1;
#X obj 283 47 adc~;
#X obj 283 75 fiddle~ 4096;
#X floatatom 283 105 5 0 0 0 - - -, f 5;
#X obj 283 132 s pitch;
#X connect 0 0 1 0;
#X connect 1 0 2 0;
#X connect 2 0 3 0;
#X connect 2 0 3 1;
#X connect 4 0 5 0;
#X connect 5 0 9 0;
#X connect 6 0 7 0;
#X connect 7 0 0 0;
#X connect 7 1 4 0;
#X connect 8 0 2 1;
#X connect 9 0 8 0;
#X connect 10 0 7 0;
#X connect 11 0 10 0;
#X connect 12 0 13 0;
#X connect 13 0 14 0;
#X connect 14 0 15 0;
